<svg aria-hidden="true" style="width:0;height:0;position:absolute;overflow:hidden" xmlns="http://www.w3.org/2000/svg"><defs><symbol id="icon-telegram" viewBox="0 0 41 32"><path d="m16.134 21.076-.686 8.934c.988 0 1.392-.383 1.896-.847l4.578-4.074 9.459 6.454c1.734.908 2.965.424 3.428-1.492l6.212-27.146c.545-2.4-.928-3.328-2.622-2.743L1.896 13.21c-2.481.887-2.44 2.198-.424 2.783l9.338 2.702L32.49 6.03c1.008-.625 1.936-.282 1.17.363L16.134 21.075z"/></symbol><symbol id="icon-github" viewBox="0 0 32 32"><path d="M16 0C7.2 0 0 7.2 0 16c0 7.488 5.248 14.304 12.24 16v-5.296c-.688.144-1.328.144-2.032-.064-.944-.272-1.712-.896-2.288-1.856-.368-.624-1.008-1.28-1.68-1.232l-.16-1.872c1.456-.128 2.704.88 3.456 2.144.336.56.72.88 1.2 1.024s.992.08 1.584-.128c.144-1.2.688-1.632 1.088-2.256-4.16-.624-5.824-2.848-6.48-4.592-.88-2.304-.4-5.2 1.136-7.04.032-.032.08-.128.064-.192-.704-2.144.16-3.904.192-4.096.816.24.944-.24 3.552 1.344l.448.272c.192.112.128.048.32.032a13.11 13.11 0 0 1 3.36-.48c1.136.016 2.272.176 3.392.48l.144.016s.048 0 .128-.048c3.248-1.968 3.136-1.328 4-1.616.032.192.896 1.984.192 4.096-.096.288 2.816 2.96 1.2 7.232-.656 1.744-2.32 3.968-6.48 4.592.528.8 1.168 1.248 1.168 2.928V32C26.736 30.304 32 23.488 32 16c0-8.8-7.216-16-16-16z"/></symbol><symbol id="icon-facebook" viewBox="0 0 15 32"><path d="M14.071 15.969H9.726V32H3.122V15.969H0v-5.647h3.122V6.683c0-2.604 1.239-6.682 6.651-6.682l4.894.016v5.459h-3.545c-.58 0-1.396.298-1.396 1.537v3.325h4.926l-.58 5.631z"/></symbol><symbol id="icon-cursor" viewBox="0 0 27 32"><path d="M24.756 15.808 9.424 1.513C5.85-1.836.006.714.006 5.605v20.77c0 4.849 5.746 7.414 9.348 4.162l3.321-2.999a5.747 5.747 0 0 1 3.125-1.401l5.76-.659c4.751-.547 6.685-6.405 3.195-9.67zM7.518 3.56l15.318 14.309q.659.603.855 1.331.182.743-.098 1.584-.28.855-.869 1.331t-1.472.589l-5.774.659q-1.331.14-2.509.673-1.163.533-2.158 1.43l-3.335 2.985q-.673.617-1.429.729-.757.126-1.584-.252-.827-.364-1.247-1.009-.406-.631-.406-1.542V5.607q0-.911.42-1.556t1.261-1.009 1.598-.238 1.429.757z"/></symbol><symbol id="icon-close-modal-mob" viewBox="0 0 32 32"><path d="M18.288 15.952 31.51 2.73c.259-.316.402-.719.402-1.121A1.633 1.633 0 0 0 30.364.086h-.004c-.402 0-.776.115-1.092.374l-13.25 13.25L2.796.46A1.578 1.578 0 0 0 1.681 0h-.036.002C1.245 0 .813.144.526.46c-.316.287-.46.69-.46 1.121s.144.834.46 1.15l13.25 13.222-13.25 13.25c-.172.144-.316.316-.402.517s-.144.402-.144.632a1.426 1.426 0 0 0 .459 1.178l.001.001c.144.172.345.287.546.374s.431.115.632.115c.23-.029.431-.086.632-.172s.374-.23.517-.402l13.25-13.222 13.25 13.222c.316.259.69.402 1.092.374.402 0 .776-.172 1.063-.46s.46-.661.489-1.063c0-.402-.144-.805-.402-1.092l-13.222-13.25z"/></symbol><symbol id="icon-close-modal" viewBox="0 0 32 32"><path d="M18.286 15.941 31.523 2.728a1.67 1.67 0 0 0 .383-1.101A1.653 1.653 0 0 0 31.427.55a1.468 1.468 0 0 0-1.053-.455 1.548 1.548 0 0 0-1.102.384l.002-.002L16.037 13.69 2.8.453a1.588 1.588 0 0 0-1.114-.455h-.012.001-.011A1.592 1.592 0 0 0 .55 2.727L13.787 15.94.55 29.177a1.495 1.495 0 0 0-.403.517l-.004.009a1.395 1.395 0 0 0-.144.622c-.024.215.024.455.096.646.072.215.215.383.359.551.168.144.335.263.551.359.192.072.431.12.646.096.215 0 .431-.048.622-.144s.383-.239.527-.407l13.237-13.237 13.237 13.237c.311.263.694.407 1.101.383s.766-.192 1.053-.455c.287-.287.455-.67.479-1.077 0-.407-.12-.79-.383-1.101L18.287 15.939z"/></symbol><symbol id="icon-close-menu" viewBox="0 0 32 32"><path d="M29.111.528 15.988 13.651 2.865.528c-.316-.3-.733-.45-1.166-.45a1.615 1.615 0 0 0-1.132.5c-.3.3-.483.699-.5 1.132 0 .433.15.849.45 1.166L13.64 15.999.5 29.122c-.15.15-.283.333-.366.55-.083.2-.133.416-.133.633-.017.216.033.45.117.649s.2.4.366.55c.297.298.709.483 1.163.483h.02-.001c.233 0 .45-.05.65-.133s.383-.216.533-.383l13.14-13.123 13.123 13.14c.316.283.733.433 1.166.433a1.615 1.615 0 0 0 1.132-.5c.316-.3.483-.699.5-1.132 0-.433-.15-.833-.45-1.149L18.337 16 31.46 2.877c.314-.298.511-.717.516-1.181v-.001c.002-.025.002-.053.002-.082 0-.205-.044-.4-.123-.576l.004.009a1.401 1.401 0 0 0-.365-.549l-.001-.001a1.379 1.379 0 0 0-.55-.366 1.358 1.358 0 0 0-.56-.118l-.076.002h.004c-.233 0-.45.033-.649.133a2 2 0 0 0-.55.366V.53z"/></symbol><symbol id="icon-burger-menu" viewBox="0 0 32 32"><path d="M5.26 14.66h21.47c.7 0 1.27.57 1.27 1.27v.13c0 .7-.57 1.27-1.27 1.27H5.26c-.7 0-1.26-.57-1.26-1.27v-.13c0-.7.56-1.27 1.26-1.27zm0 6.67h21.47c.7 0 1.27.57 1.27 1.26v.14c0 .7-.57 1.27-1.27 1.27H5.26C4.56 24 4 23.43 4 22.73v-.14c0-.69.56-1.26 1.26-1.26zM5.26 8h21.47c.7 0 1.27.56 1.27 1.26v.13c0 .7-.57 1.27-1.27 1.27H5.26c-.7 0-1.26-.57-1.26-1.27v-.13C4 8.56 4.56 8 5.26 8z"/></symbol><symbol id="icon-arrow-right-bold" viewBox="0 0 18 32"><path d="M.667.673a2.482 2.482 0 0 0-.673 1.699c0 .641.224 1.25.673 1.731l11.924 11.892L.667 27.887a2.514 2.514 0 0 0-.673 1.699 2.404 2.404 0 0 0 2.404 2.372c.609 0 1.218-.224 1.699-.673l13.591-13.591c.434-.435.703-1.035.703-1.699s-.269-1.264-.703-1.699L4.097.673A2.49 2.49 0 0 0 2.39 0h-.025.001C1.757 0 1.148.224.667.673z"/></symbol><symbol id="icon-arrow4" viewBox="0 0 99 32"><path d="m90.278 13.602-9.489-9.489a2.42 2.42 0 0 1 0-3.411 2.42 2.42 0 0 1 3.411 0l13.573 13.597a2.35 2.35 0 0 1 0 3.387L84.2 31.283a2.378 2.378 0 0 1-3.411 0c-.434-.433-.703-1.032-.703-1.694s.269-1.26.703-1.694l9.489-9.489H0v-4.805h90.278z"/></symbol></defs></svg>