<svg xmlns="http://www.w3.org/2000/svg" width="32" height="32" fill="none"><defs><clipPath id="a"><rect width="31" height="31" fill="#fff" fill-opacity="0" rx="-.5" transform="translate(.5 .5)"/></clipPath></defs><rect width="31" height="31" fill="none" rx="-.5" transform="translate(.5 .5)"/><g fill="#FFF" fill-rule="evenodd" clip-path="url(#a)"><path d="M5.26 14.66h21.47c.7 0 1.27.57 1.27 1.27v.13c0 .7-.57 1.27-1.27 1.27H5.26c-.7 0-1.26-.57-1.26-1.27v-.13c0-.7.56-1.27 1.26-1.27ZM5.26 21.33h21.47c.7 0 1.27.57 1.27 1.26v.14c0 .7-.57 1.27-1.27 1.27H5.26C4.56 24 4 23.43 4 22.73v-.14c0-.69.56-1.26 1.26-1.26ZM5.26 8h21.47c.7 0 1.27.56 1.27 1.26v.13c0 .7-.57 1.27-1.27 1.27H5.26c-.7 0-1.26-.57-1.26-1.27v-.13C4 8.56 4.56 8 5.26 8Z"/></g></svg>