<svg xmlns="http://www.w3.org/2000/svg" width="19.209" height="19.207" fill="none"><path fill="#FCFCFC" d="M17.48.31 9.6 8.19 1.72.31c-.19-.18-.44-.27-.7-.27-.26.01-.5.11-.68.3-.18.18-.29.42-.3.68 0 .26.09.51.27.7L8.19 9.6.3 17.48c-.09.09-.17.2-.22.33-.05.12-.08.25-.08.38-.01.13.02.27.07.39s.12.24.22.33a.986.986 0 0 0 .71.29c.14 0 .27-.03.39-.08s.23-.13.32-.23l7.89-7.88 7.88 7.89c.19.17.44.26.7.26.26-.01.5-.11.68-.3.19-.18.29-.42.3-.68 0-.26-.09-.5-.27-.69L11.01 9.6l7.88-7.88a.995.995 0 0 0 .31-.71.848.848 0 0 0-.07-.39.834.834 0 0 0-.22-.33c-.09-.1-.2-.17-.33-.22A.83.83 0 0 0 18.2 0c-.14 0-.27.02-.39.08-.12.05-.23.13-.33.22v.01Z"/></svg>