<svg xmlns="http://www.w3.org/2000/svg" width="13.333" height="13.369" fill="none" viewBox="0 0 13.334 13.369"><path fill="#131313" d="m7.64 6.66 5.53-5.52c.11-.13.16-.29.16-.46a.692.692 0 0 0-.2-.45.613.613 0 0 0-.44-.19.649.649 0 0 0-.46.16L6.7 5.72 1.17.19A.665.665 0 0 0 .7 0a.665.665 0 0 0-.47 1.14l5.53 5.52-5.53 5.53a.62.62 0 0 0-.17.22c-.04.08-.06.17-.06.26-.01.09.01.19.04.27.03.09.09.16.15.23.07.06.14.11.23.15.08.03.18.05.27.04.09 0 .18-.02.26-.06.08-.04.16-.1.22-.17L6.7 7.6l5.53 5.53c.13.11.29.17.46.16.17-.01.32-.08.44-.19.12-.12.19-.28.2-.45 0-.17-.05-.33-.16-.46L7.64 6.66Z"/></svg>