<svg xmlns="http://www.w3.org/2000/svg" width="20" height="20" fill="none"><path fill="#84A178" d="M10 0C4.5 0 0 4.5 0 10c0 4.68 3.28 8.94 7.65 10v-3.31c-.43.09-.83.09-1.27-.04-.59-.17-1.07-.56-1.43-1.16-.23-.39-.63-.8-1.05-.77l-.1-1.17c.91-.08 1.69.55 2.16 1.34.21.35.45.55.75.64.3.09.62.05.99-.08.09-.75.43-1.02.68-1.41-2.6-.39-3.64-1.78-4.05-2.87-.55-1.44-.25-3.25.71-4.4.02-.02.05-.08.04-.12-.44-1.34.1-2.44.12-2.56.51.15.59-.15 2.22.84l.28.17c.12.07.08.03.2.02.67-.19 1.39-.29 2.1-.3.71.01 1.42.11 2.12.3l.09.01s.03 0 .08-.03c2.03-1.23 1.96-.83 2.5-1.01.02.12.56 1.24.12 2.56-.06.18 1.76 1.85.75 4.52-.41 1.09-1.45 2.48-4.05 2.87.33.5.73.78.73 1.83V20C16.71 18.94 20 14.68 20 10c0-5.5-4.51-10-10-10Z"/></svg>